# xmcd
#
# Track frame offsets:
# 150
# 23345
# 62535
# 75977
# 88462
# 119289
# 139116
# 160702
# 190146
# 211688
# 233362
# 263484
# 281779
# 301821
#
# Disc length: 4397 seconds
#
# Revision: 0
# Processed by: cddbd v1.4PL0 Copyright (c) Steve Scherf et al.
# Submitted via: Audion 3.0.2 (http://www.panic.com/audion/)
#
DISCID=a5112b0e
DTITLE=prince - best of prince - slow
DYEAR=1900
DGENRE=
TTITLE0=free
TTITLE1=purple rain
TTITLE2=under the cherry moon
TTITLE3=do you lie
TTITLE4=sometimes it snows in april
TTITLE5=slow love
TTITLE6=the cross
TTITLE7=it's gonna be a beautiful day
TTITLE8=diamonds&pearls
TTITLE9=money don't matters tonight
TTITLE10=insatiable
TTITLE11=sweet baby
TTITLE12=damn u
TTITLE13=pink cashmere
EXTD=
EXTT0=
EXTT1=
EXTT2=
EXTT3=
EXTT4=
EXTT5=
EXTT6=
EXTT7=
EXTT8=
EXTT9=
EXTT10=
EXTT11=
EXTT12=
EXTT13=
PLAYORDER=
